<svg width="88" height="48" viewBox="0 0 88 48" fill="none" xmlns="http://www.w3.org/2000/svg">
<g filter="url(#filter0_d_1209_6539)">
<rect x="4" width="80" height="40" rx="8" fill="#F1F1FA"/>
<path fill-rule="evenodd" clip-rule="evenodd" d="M43.952 28.6739C49.0047 24.3426 56.102 20.1326 60 18.6166C59.3987 18.2313 58.46 17.6779 57.4013 17.0766C52.3727 18.7366 46.502 22.4179 41.2567 26.5806C42.1473 27.2539 43.0853 27.9519 43.952 28.6739Z" fill="#E31837"/>
<path fill-rule="evenodd" clip-rule="evenodd" d="M41.642 16.9087C40.896 16.5474 40.078 16.2107 39.4527 15.9221C37.552 16.8601 35.0733 18.2801 31.946 20.5174C32.62 20.8787 33.3413 21.3114 34.1113 21.7447C36.5173 19.9641 38.9473 18.2801 41.642 16.9087Z" fill="#012169"/>
<path fill-rule="evenodd" clip-rule="evenodd" d="M46.1413 14.8393C45.2266 14.334 42.0513 13.1546 39.8613 12.65C39.212 12.8906 38.2973 13.2513 37.672 13.516C38.466 13.7326 41.4253 14.5266 43.952 15.802C44.6013 15.4886 45.516 15.104 46.1413 14.8393Z" fill="#E31837"/>
<path fill-rule="evenodd" clip-rule="evenodd" d="M35.386 14.5267C32.5713 15.826 29.612 17.606 28 18.6407C28.5773 18.9053 29.1547 19.122 29.9487 19.5067C33.5093 17.1007 36.3007 15.6327 37.4073 15.152C36.6133 14.8627 35.8673 14.6707 35.386 14.5267Z" fill="#012169"/>
<path fill-rule="evenodd" clip-rule="evenodd" d="M48.2587 14.0934C48.908 13.8767 49.6547 13.6841 50.304 13.4914C48.4273 12.6974 46.0693 11.8554 43.952 11.326C43.6153 11.422 42.6047 11.6874 41.9067 11.9034C42.6287 12.1207 45.01 12.674 48.2587 14.0934ZM36.3967 23.14C37.1667 23.5974 37.9847 24.2227 38.7787 24.7521C44.048 20.6621 49.2447 17.51 54.9473 15.7294C54.1533 15.3207 53.4553 14.96 52.5653 14.5267C49.1487 15.3927 43.302 17.726 36.3967 23.14Z" fill="#E31837"/>
</g>
<defs>
<filter id="filter0_d_1209_6539" x="0" y="0" width="88" height="48" filterUnits="userSpaceOnUse" color-interpolation-filters="sRGB">
<feFlood flood-opacity="0" result="BackgroundImageFix"/>
<feColorMatrix in="SourceAlpha" type="matrix" values="0 0 0 0 0 0 0 0 0 0 0 0 0 0 0 0 0 0 127 0" result="hardAlpha"/>
<feOffset dy="4"/>
<feGaussianBlur stdDeviation="2"/>
<feComposite in2="hardAlpha" operator="out"/>
<feColorMatrix type="matrix" values="0 0 0 0 0 0 0 0 0 0 0 0 0 0 0 0 0 0 0.25 0"/>
<feBlend mode="normal" in2="BackgroundImageFix" result="effect1_dropShadow_1209_6539"/>
<feBlend mode="normal" in="SourceGraphic" in2="effect1_dropShadow_1209_6539" result="shape"/>
</filter>
</defs>
</svg>
