<svg width="88" height="48" viewBox="0 0 88 48" fill="none" xmlns="http://www.w3.org/2000/svg">
<g filter="url(#filter0_d_1209_6533)">
<rect x="4" width="80" height="40" rx="8" fill="#F1F1FA"/>
<path d="M53.9766 12.9069L51.4377 17.6639C50.4794 16.8606 49.3092 16.2693 47.8162 16.2693C44.283 16.2693 42.8478 18.9881 42.8478 20.9032C42.8478 22.3247 43.7495 24.4221 46.8933 24.4221C48.2128 24.4221 50.0888 23.4745 50.6287 23.0433L48.1177 28.5622C46.9208 28.8087 46.5276 28.9616 45.5144 28.9939C39.8875 29.1673 37.6138 25.5991 37.6154 21.953C37.6192 17.1329 41.7706 11.271 48.6526 11.271C49.0743 11.271 49.5901 11.4216 50.0311 11.5884L50.4768 11" fill="#0060AF"/>
<path d="M64.4527 11.1494L65.1716 28.4391H59.8211L59.8179 25.4738H56.1695L54.9687 28.4391H49.166L55.2325 16.0928L53.8646 16.0836L56.4638 11.1494H64.4527ZM59.7832 16.4387L57.7204 21.4676H59.8454" fill="#0060AF"/>
<path d="M34.2375 11.1498C36.8872 11.1651 38.3845 12.6498 38.3845 14.7945C38.3845 16.7717 36.8054 18.5219 35.0719 19.4269C36.8566 20.1041 37.0109 21.7666 37.0109 22.9427C37.0109 25.7843 34.2488 28.4394 30.6585 28.4394H22.8284L25.8827 16.2651L24.6281 16.2576L27.1928 11.1498C27.1928 11.1498 32.0829 11.1344 34.2375 11.1498ZM31.6379 18.1597C32.186 18.1597 33.1538 18.0164 33.3957 16.9215C33.6609 15.7328 32.7526 15.7009 32.317 15.7009L30.7603 15.6938L30.2174 18.1598L31.6379 18.1597ZM29.4371 21.215L28.7203 24.0565H30.5533C31.2745 24.0565 32.2573 23.687 32.4981 22.7623C32.7359 21.8349 32.0489 21.215 31.3303 21.215" fill="#0060AF"/>
</g>
<defs>
<filter id="filter0_d_1209_6533" x="0" y="0" width="88" height="48" filterUnits="userSpaceOnUse" color-interpolation-filters="sRGB">
<feFlood flood-opacity="0" result="BackgroundImageFix"/>
<feColorMatrix in="SourceAlpha" type="matrix" values="0 0 0 0 0 0 0 0 0 0 0 0 0 0 0 0 0 0 127 0" result="hardAlpha"/>
<feOffset dy="4"/>
<feGaussianBlur stdDeviation="2"/>
<feComposite in2="hardAlpha" operator="out"/>
<feColorMatrix type="matrix" values="0 0 0 0 0 0 0 0 0 0 0 0 0 0 0 0 0 0 0.25 0"/>
<feBlend mode="normal" in2="BackgroundImageFix" result="effect1_dropShadow_1209_6533"/>
<feBlend mode="normal" in="SourceGraphic" in2="effect1_dropShadow_1209_6533" result="shape"/>
</filter>
</defs>
</svg>
