<svg width="25" height="24" viewBox="0 0 25 24" fill="none" xmlns="http://www.w3.org/2000/svg">
<path d="M0.5 15.4159C0.5 15.884 0.88 16.2661 1.348 16.2661H7.285V0.572143L0.5 7.71893V15.4159ZM15.916 24C16.383 24 16.762 23.6199 16.762 23.1508V17.2123H1.073L8.219 23.999H15.916V24ZM24.5 8.58615C24.5003 8.47486 24.4785 8.36462 24.436 8.26177C24.3936 8.15892 24.3312 8.06549 24.2524 7.98684C24.1737 7.9082 24.0802 7.8459 23.9774 7.80352C23.8745 7.76115 23.7643 7.73954 23.653 7.73994H17.715V23.4329L24.497 16.2831L24.5 8.58515V8.58615ZM9.085 0C8.86036 0 8.64492 0.0892595 8.48608 0.248143C8.32724 0.407026 8.238 0.622517 8.238 0.847212V6.7887H23.926L16.782 0H9.085Z" fill="#126BC5"/>
</svg>
