<svg width="88" height="48" viewBox="0 0 88 48" fill="none" xmlns="http://www.w3.org/2000/svg">
<g filter="url(#filter0_d_1209_6541)">
<rect x="4" width="80" height="40" rx="8" fill="#F1F1FA"/>
<g clip-path="url(#clip0_1209_6541)">
<path d="M37.8408 26.1727L37.7828 26.2283C36.8713 27.1476 35.8164 27.6333 34.7298 27.6333C32.4605 27.6333 30.8143 25.9482 30.8143 23.624C30.8143 21.3034 32.4605 19.6156 34.7298 19.6156C35.8164 19.6156 36.8713 20.104 37.7828 21.0269L37.8408 21.0816L39.3002 19.3346L39.2612 19.2879C38.0476 17.8686 36.591 17.1783 34.8006 17.1783C33.0056 17.1783 31.3622 17.777 30.1794 18.8552C28.8915 20.0241 28.214 21.6723 28.214 23.624C28.214 25.5757 28.8915 27.2275 30.1794 28.3964C31.3622 29.4808 33.0056 30.0751 34.8006 30.0751C36.591 30.0751 38.0476 29.3839 39.2612 27.9637L39.3002 27.9206L37.8408 26.1727Z" fill="#004685"/>
<path d="M40.7735 29.8369H43.3512V17.3799H40.7735V29.8369Z" fill="#004685"/>
<path d="M53.4502 27.1288C52.7618 27.5436 52.1224 27.7528 51.5473 27.7528C50.7138 27.7528 50.3365 27.3165 50.3365 26.3469V19.7369H52.9641V17.392H50.3365V13.5156L47.8105 14.855V17.392H45.6301V19.7369H47.8105V26.768C47.8105 28.6828 48.9569 29.9935 50.6693 30.0276C51.8312 30.0501 52.5314 29.7071 52.9559 29.4558L52.9831 29.4387L53.6026 27.0364L53.4502 27.1288Z" fill="#004685"/>
<path d="M55.5839 29.8369H58.1652V17.3799H55.5839V29.8369Z" fill="#004685"/>
<path d="M59.6688 15.1963C57.3133 11.8944 53.4023 9.92479 49.4233 9.92479C45.4452 9.92479 41.5333 11.8944 39.1824 15.1963L39.0609 15.366H42.0267L42.0594 15.331C44.0775 13.268 46.7132 12.1781 49.4233 12.1781C52.1334 12.1781 54.7673 13.268 56.79 15.331L56.8226 15.366H59.7867L59.6688 15.1963Z" fill="#EE1C25"/>
</g>
</g>
<defs>
<filter id="filter0_d_1209_6541" x="0" y="0" width="88" height="48" filterUnits="userSpaceOnUse" color-interpolation-filters="sRGB">
<feFlood flood-opacity="0" result="BackgroundImageFix"/>
<feColorMatrix in="SourceAlpha" type="matrix" values="0 0 0 0 0 0 0 0 0 0 0 0 0 0 0 0 0 0 127 0" result="hardAlpha"/>
<feOffset dy="4"/>
<feGaussianBlur stdDeviation="2"/>
<feComposite in2="hardAlpha" operator="out"/>
<feColorMatrix type="matrix" values="0 0 0 0 0 0 0 0 0 0 0 0 0 0 0 0 0 0 0.25 0"/>
<feBlend mode="normal" in2="BackgroundImageFix" result="effect1_dropShadow_1209_6541"/>
<feBlend mode="normal" in="SourceGraphic" in2="effect1_dropShadow_1209_6541" result="shape"/>
</filter>
<clipPath id="clip0_1209_6541">
<rect width="32" height="20.5726" fill="white" transform="translate(28 9.71368)"/>
</clipPath>
</defs>
</svg>
