<svg width="88" height="48" viewBox="0 0 88 48" fill="none" xmlns="http://www.w3.org/2000/svg">
<g filter="url(#filter0_d_1209_6535)">
<rect x="4" width="80" height="40" rx="8" fill="#F1F1FA"/>
<g clip-path="url(#clip0_1209_6535)">
<path d="M12.43 23.3693C12.43 22.4752 12.414 21.7267 12.3646 21.0571H14.0958L14.178 22.2061H14.2259C14.6178 21.5996 15.3362 20.881 16.6755 20.881C17.7211 20.881 18.5369 21.4562 18.8801 22.3169H18.9136C19.1913 21.8865 19.5171 21.567 19.8922 21.3447C20.3336 21.0407 20.8411 20.881 21.4933 20.881C22.8166 20.881 24.1545 21.758 24.1545 24.2477V28.8239H22.195V24.5332C22.195 23.2422 21.7376 22.4752 20.7742 22.4752C20.0886 22.4752 19.5818 22.9553 19.3702 23.5135C19.3113 23.7265 19.2784 23.9455 19.272 24.1661V28.8246H17.3125V24.3252C17.3125 23.2429 16.8719 22.4759 15.9404 22.4759C15.1908 22.4759 14.6847 23.0512 14.503 23.5923C14.4223 23.784 14.3888 24.0084 14.3888 24.23V28.8246H12.43V23.3693ZM31.7898 26.9591C31.7898 27.66 31.8225 28.3453 31.9032 28.8246H30.0905L29.9604 27.9639H29.911C29.4209 28.5704 28.5876 28.9993 27.561 28.9993C25.9599 28.9993 25.0619 27.8681 25.0619 26.6871C25.0619 24.7235 26.8404 23.7364 29.7815 23.7521V23.625C29.7815 23.1137 29.5685 22.2686 28.1637 22.2686C27.3792 22.2686 26.5634 22.5086 26.0246 22.8424L25.6327 21.5662C26.2209 21.2147 27.2498 20.8803 28.5062 20.8803C31.0547 20.8803 31.7905 22.461 31.7905 24.1497L31.7898 26.9591ZM29.8295 25.0296C28.408 24.997 27.0534 25.3002 27.0534 26.4804C27.0534 27.246 27.561 27.5975 28.1972 27.5975C28.9963 27.5975 29.5852 27.0855 29.7648 26.528C29.8088 26.3886 29.8308 26.2435 29.8302 26.0977V25.0296H29.8295ZM33.1771 23.3693C33.1771 22.4752 33.1604 21.7267 33.1131 21.0571H34.8749L34.9723 22.2231H35.0217C35.3642 21.616 36.2302 20.881 37.5528 20.881C38.9415 20.881 40.3776 21.758 40.3776 24.2158V28.8239H38.3693V24.4388C38.3693 23.3224 37.944 22.4745 36.8504 22.4745C36.0513 22.4745 35.4944 23.0334 35.2828 23.6242C35.2173 23.7989 35.2013 24.039 35.2013 24.2605V28.8232H33.1764L33.1771 23.3693ZM49.0868 17.9367V26.6395C49.0868 27.437 49.1202 28.2998 49.1522 28.8246H47.357L47.2748 27.5975H47.2414C46.7688 28.4582 45.8039 29 44.6456 29C42.7508 29 41.2494 27.4214 41.2494 25.0303C41.2319 22.4298 42.897 20.8817 44.8092 20.8817C45.9028 20.8817 46.6866 21.3284 47.0458 21.905H47.08V17.9374H49.0875V17.9367H49.0868ZM47.0793 24.2946C47.0793 24.1363 47.0633 23.9445 47.0298 23.784C46.8502 23.0199 46.2147 22.3971 45.2993 22.3971C44.0094 22.3971 43.2896 23.5142 43.2896 24.965C43.2896 26.3832 44.0087 27.4207 45.2833 27.4207C46.0984 27.4207 46.8175 26.8774 47.0131 26.0323C47.0625 25.8576 47.08 25.6652 47.08 25.4585V24.2946H47.0793ZM50.5075 28.8246V21.0571H52.534V28.8246H50.5075ZM53.9533 23.5618C53.9533 22.5093 53.938 21.7587 53.8893 21.0578H55.6365L55.7005 22.5399H55.7666C56.1586 21.4398 57.0885 21.0578 57.9399 21.0578C58.1355 21.0578 58.249 21.0251 58.4118 21.0578V22.7813C58.2191 22.7397 58.0224 22.7182 57.8251 22.7174C56.8595 22.7174 56.2065 23.3239 56.0277 24.1995C55.9881 24.3999 55.9665 24.6033 55.963 24.8073V28.8253H53.9533V23.5618ZM59.344 28.8246V21.0571H61.3675V28.8246H59.344Z" fill="#0D2B5B"/>
<path d="M73.9721 12.8421C72.9695 11.725 71.9035 12.2307 71.0565 12.6418C70.7002 12.8137 68.1284 14.2375 68.1284 14.2375C66.7193 14.8049 65.6221 14.1857 65.1917 13.6644C65.1505 13.615 65.1133 13.5625 65.0804 13.5075L64.9801 13.3378C64.8105 13.0513 64.622 12.7759 64.4159 12.5133C64.2907 12.3541 64.1552 12.203 64.0101 12.0609C63.046 11.1101 61.5053 10.4446 58.9299 11.6533C57.7105 12.3436 53.7384 14.5599 53.7384 14.5599C52.2456 15.16 51.1041 14.4293 50.7333 13.8931C50.7166 13.873 50.702 13.8514 50.6896 13.8285L50.6409 13.7475L50.3893 13.3456C50.2758 13.1695 50.154 12.9987 50.0243 12.8336C49.898 12.6754 49.7623 12.5246 49.6179 12.3819C48.6603 11.4367 47.1276 10.7727 44.5747 11.9587C43.0311 12.8194 39.4407 14.8241 39.4407 14.8241L39.4392 14.8255L36.8115 16.292L38.1711 17.9225C38.7434 18.4551 39.8188 19.3285 41.4824 18.5921C41.4824 18.5921 46.074 15.9951 46.0922 15.9873C50.0178 13.8832 51.9548 15.8936 52.8113 17.2336C52.8411 17.2755 52.8651 17.321 52.892 17.3614L52.8935 17.3636C52.9044 17.3799 52.9109 17.3948 52.9204 17.4104L53.0171 17.5653C53.4344 18.1831 54.0925 18.5822 54.877 18.5637C55.3096 18.5552 55.6034 18.4174 56.0309 18.1852L60.4735 15.6685L60.483 15.6642C64.458 13.5345 66.4277 15.6763 67.269 17.0163C67.3344 17.1321 67.4086 17.2428 67.4849 17.3458C67.9016 17.8976 68.476 18.2591 69.206 18.2413C69.6881 18.2321 70.2283 17.9494 70.309 17.8976L75.635 14.8951C75.6365 14.8965 75.0926 14.0934 73.9721 12.8421Z" fill="#FDD213"/>
</g>
</g>
<defs>
<filter id="filter0_d_1209_6535" x="0" y="0" width="88" height="48" filterUnits="userSpaceOnUse" color-interpolation-filters="sRGB">
<feFlood flood-opacity="0" result="BackgroundImageFix"/>
<feColorMatrix in="SourceAlpha" type="matrix" values="0 0 0 0 0 0 0 0 0 0 0 0 0 0 0 0 0 0 127 0" result="hardAlpha"/>
<feOffset dy="4"/>
<feGaussianBlur stdDeviation="2"/>
<feComposite in2="hardAlpha" operator="out"/>
<feColorMatrix type="matrix" values="0 0 0 0 0 0 0 0 0 0 0 0 0 0 0 0 0 0 0.25 0"/>
<feBlend mode="normal" in2="BackgroundImageFix" result="effect1_dropShadow_1209_6535"/>
<feBlend mode="normal" in="SourceGraphic" in2="effect1_dropShadow_1209_6535" result="shape"/>
</filter>
<clipPath id="clip0_1209_6535">
<rect width="63.2892" height="18" fill="white" transform="translate(12.3554 11)"/>
</clipPath>
</defs>
</svg>
