<svg width="88" height="48" viewBox="0 0 88 48" fill="none" xmlns="http://www.w3.org/2000/svg">
<g filter="url(#filter0_d_1209_6543)">
<rect x="4" width="80" height="40" rx="8" fill="#F1F1FA"/>
<g clip-path="url(#clip0_1209_6543)">
<path d="M51.0846 9.8682C49.9775 8.60605 47.9763 8.06494 45.416 8.06494H37.9856C37.7323 8.06495 37.4873 8.15534 37.2946 8.31986C37.102 8.48439 36.9744 8.71225 36.9347 8.96248L33.8408 28.589C33.7793 28.976 34.0789 29.3265 34.4711 29.3265H39.0584L40.2104 22.0175L40.1747 22.2464C40.2568 21.7298 40.6985 21.3487 41.2216 21.3487H43.4015C47.6839 21.3487 51.037 19.6089 52.0165 14.5762C52.0456 14.4273 52.0708 14.2825 52.0926 14.1409C51.9689 14.0754 51.9689 14.0754 52.0926 14.1409C52.3842 12.2808 52.0906 11.0146 51.0846 9.8682" fill="#27346A"/>
<path d="M41.9657 13.4708C42.0911 13.4111 42.2283 13.3801 42.3672 13.3802H48.1925C48.8824 13.3802 49.5258 13.4251 50.1137 13.5198C50.2782 13.546 50.4419 13.5773 50.6045 13.6137C50.8349 13.6646 51.0627 13.7268 51.287 13.8002C51.5761 13.8968 51.8452 14.0092 52.0927 14.1409C52.3842 12.28 52.0906 11.0146 51.0846 9.8682C49.9769 8.60605 47.9763 8.06494 45.416 8.06494H37.985C37.4618 8.06494 37.0167 8.44592 36.9347 8.96248L33.8408 28.5883C33.7793 28.9759 34.0789 29.3259 34.4704 29.3259H39.0584L41.4486 14.1654C41.4721 14.0164 41.5314 13.8753 41.6215 13.7543C41.7116 13.6333 41.8297 13.536 41.9657 13.4708V13.4708Z" fill="#27346A"/>
<path d="M52.0166 14.5761C51.0371 19.6081 47.684 21.3486 43.4015 21.3486H41.221C40.6979 21.3486 40.2561 21.7297 40.1748 22.2463L38.7415 31.3341C38.688 31.6728 38.9499 31.9797 39.2925 31.9797H43.1594C43.381 31.9797 43.5952 31.9006 43.7636 31.7566C43.932 31.6127 44.0435 31.4134 44.0782 31.1946L44.1158 30.9975L44.8446 26.3774L44.8916 26.1221C44.9262 25.9032 45.0377 25.7039 45.2061 25.56C45.3745 25.4161 45.5887 25.337 45.8102 25.3369H46.389C50.1349 25.3369 53.0681 23.8147 53.9253 19.4124C54.283 17.5726 54.0979 16.0366 53.1515 14.9578C52.8644 14.631 52.5079 14.3611 52.0926 14.1408C52.0701 14.2831 52.0457 14.4272 52.0166 14.5761V14.5761Z" fill="#2790C3"/>
<path d="M51.0675 13.7323C50.9148 13.6877 50.7606 13.6482 50.6053 13.6139C50.4426 13.5781 50.2789 13.547 50.1145 13.5206C49.5259 13.4253 48.883 13.3803 48.1925 13.3803H42.3679C42.2289 13.38 42.0916 13.4112 41.9664 13.4716C41.8303 13.5366 41.712 13.6339 41.6219 13.7549C41.5317 13.8759 41.4725 14.0171 41.4492 14.1662L40.2111 22.0177L40.1754 22.2466C40.2568 21.7299 40.6986 21.3489 41.2218 21.3489H43.4023C47.6847 21.3489 51.0377 19.6091 52.0172 14.5763C52.0464 14.4275 52.0709 14.2833 52.0934 14.1411C51.8453 14.0101 51.5768 13.8969 51.2877 13.801C51.2147 13.7768 51.1414 13.7539 51.0676 13.7323" fill="#1F264F"/>
</g>
</g>
<defs>
<filter id="filter0_d_1209_6543" x="0" y="0" width="88" height="48" filterUnits="userSpaceOnUse" color-interpolation-filters="sRGB">
<feFlood flood-opacity="0" result="BackgroundImageFix"/>
<feColorMatrix in="SourceAlpha" type="matrix" values="0 0 0 0 0 0 0 0 0 0 0 0 0 0 0 0 0 0 127 0" result="hardAlpha"/>
<feOffset dy="4"/>
<feGaussianBlur stdDeviation="2"/>
<feComposite in2="hardAlpha" operator="out"/>
<feColorMatrix type="matrix" values="0 0 0 0 0 0 0 0 0 0 0 0 0 0 0 0 0 0 0.25 0"/>
<feBlend mode="normal" in2="BackgroundImageFix" result="effect1_dropShadow_1209_6543"/>
<feBlend mode="normal" in="SourceGraphic" in2="effect1_dropShadow_1209_6543" result="shape"/>
</filter>
<clipPath id="clip0_1209_6543">
<rect width="20.34" height="24" fill="white" transform="translate(33.83 8)"/>
</clipPath>
</defs>
</svg>
