<svg width="88" height="48" viewBox="0 0 88 48" fill="none" xmlns="http://www.w3.org/2000/svg">
<g filter="url(#filter0_d_1209_6531)">
<rect x="4" width="80" height="40" rx="8" fill="#EEE5FF" shape-rendering="crispEdges"/>
<path d="M18.9521 18.0291H20.3279C20.2863 16.5149 18.9475 15.4162 17.0271 15.4162C15.1297 15.4162 13.6755 16.5011 13.6755 18.1307C13.6755 19.4464 14.6173 20.2173 16.1361 20.6282L17.2533 20.9329C18.2643 21.2006 19.0445 21.533 19.0445 22.3732C19.0445 23.2965 18.1627 23.9059 16.9486 23.9059C15.8499 23.9059 14.9358 23.4165 14.8527 22.3871H13.4216C13.5139 24.0998 14.8389 25.157 16.9578 25.157C19.1784 25.157 20.4571 23.989 20.4571 22.3871C20.4571 20.6836 18.9383 20.0234 17.738 19.728L16.8147 19.4879C16.0761 19.2987 15.0928 18.9524 15.0974 18.0476C15.0974 17.2443 15.8314 16.6488 16.9948 16.6488C18.0796 16.6488 18.8506 17.1566 18.9521 18.0291ZM25.1071 25.1431C26.6536 25.1431 27.7477 24.3814 28.0616 23.2273L26.7551 22.9918C26.5059 23.6612 25.9057 24.0028 25.1209 24.0028C23.9391 24.0028 23.1451 23.2365 23.1081 21.87H28.1493V21.3807C28.1493 18.8185 26.6167 17.8168 25.0101 17.8168C23.0343 17.8168 21.7324 19.3217 21.7324 21.5007C21.7324 23.7028 23.0158 25.1431 25.1071 25.1431ZM23.1127 20.8359C23.1681 19.8295 23.8975 18.957 25.0194 18.957C26.0904 18.957 26.7921 19.7511 26.7967 20.8359H23.1127ZM32.7369 25.1431C34.2835 25.1431 35.3776 24.3814 35.6915 23.2273L34.385 22.9918C34.1357 23.6612 33.5356 24.0028 32.7508 24.0028C31.569 24.0028 30.7749 23.2365 30.738 21.87H35.7792V21.3807C35.7792 18.8185 34.2465 17.8168 32.64 17.8168C30.6642 17.8168 29.3623 19.3217 29.3623 21.5007C29.3623 23.7028 30.6457 25.1431 32.7369 25.1431ZM30.7426 20.8359C30.798 19.8295 31.5274 18.957 32.6492 18.957C33.7203 18.957 34.422 19.7511 34.4266 20.8359H30.7426ZM49.0747 20.2727C49.0747 17.2489 47.265 15.4162 44.8183 15.4162C42.3623 15.4162 40.5573 17.2489 40.5573 20.2727C40.5573 23.2919 42.3623 25.1293 44.8183 25.1293C47.265 25.1293 49.0747 23.2965 49.0747 20.2727ZM47.662 20.2727C47.662 22.5763 46.4433 23.8274 44.8183 23.8274C43.1887 23.8274 41.9745 22.5763 41.9745 20.2727C41.9745 17.9691 43.1887 16.718 44.8183 16.718C46.4433 16.718 47.662 17.9691 47.662 20.2727ZM54.0524 17.9091H52.5982V16.2102H51.2179V17.9091H50.1792V19.017H51.2179V23.2042C51.2132 24.4922 52.1966 25.1154 53.286 25.0923C53.7246 25.0877 54.0201 25.0046 54.1816 24.9446L53.9324 23.8043C53.84 23.8228 53.6692 23.8643 53.4476 23.8643C52.9998 23.8643 52.5982 23.7166 52.5982 22.918V19.017H54.0524V17.9091ZM57.1119 20.7898C57.1119 19.6587 57.8275 19.0124 58.8108 19.0124C59.7618 19.0124 60.3296 19.6172 60.3296 20.6559V25H61.71V20.4897C61.71 18.7216 60.7405 17.8168 59.2817 17.8168C58.1784 17.8168 57.5136 18.2969 57.1812 19.0632H57.0935V15.5455H55.7316V25H57.1119V20.7898ZM66.608 25.1431C68.1546 25.1431 69.2487 24.3814 69.5626 23.2273L68.2561 22.9918C68.0068 23.6612 67.4067 24.0028 66.6219 24.0028C65.4401 24.0028 64.646 23.2365 64.6091 21.87H69.6503V21.3807C69.6503 18.8185 68.1176 17.8168 66.5111 17.8168C64.5352 17.8168 63.2334 19.3217 63.2334 21.5007C63.2334 23.7028 64.5168 25.1431 66.608 25.1431ZM64.6137 20.8359C64.6691 19.8295 65.3985 18.957 66.5203 18.957C67.5914 18.957 68.2931 19.7511 68.2977 20.8359H64.6137ZM71.1818 25H72.5621V20.6697C72.5621 19.7418 73.2777 19.0724 74.2564 19.0724C74.5426 19.0724 74.8658 19.1232 74.9766 19.1555V17.8352C74.8381 17.8168 74.5657 17.8029 74.3903 17.8029C73.5593 17.8029 72.8484 18.2738 72.5898 19.0355H72.516V17.9091H71.1818V25Z" fill="#7F3DFF"/>
</g>
<defs>
<filter id="filter0_d_1209_6531" x="0" y="0" width="88" height="48" filterUnits="userSpaceOnUse" color-interpolation-filters="sRGB">
<feFlood flood-opacity="0" result="BackgroundImageFix"/>
<feColorMatrix in="SourceAlpha" type="matrix" values="0 0 0 0 0 0 0 0 0 0 0 0 0 0 0 0 0 0 127 0" result="hardAlpha"/>
<feOffset dy="4"/>
<feGaussianBlur stdDeviation="2"/>
<feComposite in2="hardAlpha" operator="out"/>
<feColorMatrix type="matrix" values="0 0 0 0 0 0 0 0 0 0 0 0 0 0 0 0 0 0 0.25 0"/>
<feBlend mode="normal" in2="BackgroundImageFix" result="effect1_dropShadow_1209_6531"/>
<feBlend mode="normal" in="SourceGraphic" in2="effect1_dropShadow_1209_6531" result="shape"/>
</filter>
</defs>
</svg>
